<?xml version="1.0" encoding="UTF-8"?>
<svg width="108px" height="71px" viewBox="0 0 108 71" version="1.1" xmlns="http://www.w3.org/2000/svg" xmlns:xlink="http://www.w3.org/1999/xlink">
    <!-- Generator: Sketch 43.2 (39069) - http://www.bohemiancoding.com/sketch -->
    <title>hdiw-usp-3</title>
    <desc>Created with Sketch.</desc>
    <defs></defs>
    <g id="Page-1" stroke="none" stroke-width="1" fill="none" fill-rule="evenodd">
        <g id="Illustrations" transform="translate(-246.000000, -663.000000)">
            <g id="hdiw-usp-3" transform="translate(246.000000, 663.000000)">
                <g id="fair">
                    <g transform="translate(54.000000, 35.500000) scale(-1, 1) translate(-54.000000, -35.500000) " id="Layer_1">
                        <g>
                            <g id="Group">
                                <rect id="XMLID_60_" fill-opacity="0.2" fill="#00B6F0" transform="translate(14.687658, 21.293473) rotate(-71.070400) translate(-14.687658, -21.293473) " x="-3.15004102" y="13.9843595" width="35.6753985" height="14.6182266"></rect>
                                <path d="M37.3917556,4.87231988 L36.0500041,5.53381056 C34.3783136,6.34964907 32.4206762,6.45989752 30.682998,5.84250621 L28.4394134,5.04871739 C28.3074379,4.96051863 28.1754623,4.89436957 28.0434868,4.85027019 L14.2300448,0.109586957 C13.1962363,-0.243208075 12.0524481,0.308034161 11.7005132,1.34436957 L0.108659878,35.1906429 C-0.0673075356,35.6977857 -0.0233156823,36.249028 0.196643585,36.7120714 C0.416602851,37.1751149 0.834525458,37.5499596 1.34043177,37.7263571 L15.1318778,42.4670404 C15.3518371,42.5331894 15.5717963,42.5772888 15.7697597,42.5772888 C16.6056049,42.5772888 17.3754623,42.0480963 17.6614094,41.2322578 L28.5933849,9.34840683 L29.3412464,9.61300311 C32.0907373,10.5831894 35.170167,10.4067919 37.8096782,9.12790994 L39.1514297,8.46641925 C40.8011242,7.65058075 42.7367658,7.5403323 44.474444,8.13567391 L69.8357475,16.8894006 C69.5717963,17.9477857 69.0438941,19.204618 68.0760733,19.8881584 C66.9982729,20.6378478 65.3925703,20.6378478 63.2809613,19.9102081 L51.975055,16.0294627 C51.4471527,15.8530652 50.8752587,15.8971646 50.3913483,16.1617609 C49.9074379,16.4263571 49.5555031,16.8894006 49.4015316,17.4185932 C49.3795356,17.4847422 47.8178248,23.3499596 42.8247495,26.0400217 C39.679332,27.7378478 35.764057,27.8039969 31.1669084,26.2384689 C30.1330998,25.8856739 28.9893116,26.4369161 28.6373768,27.4732516 C28.285442,28.509587 28.8353401,29.6561708 29.8691487,30.0089658 C32.5086599,30.9130031 34.9941996,31.3760466 37.3037719,31.3760466 C39.9872749,31.3760466 42.4508187,30.780705 44.6944033,29.567972 C49.1595764,27.1645559 51.4691487,22.9530652 52.5249532,20.4394006 L61.9612057,23.680705 C65.3265825,24.8493385 68.1420611,24.672941 70.3196578,23.1515124 C73.8170102,20.7260466 73.9929776,15.8089658 74.0149735,15.5884689 C74.0369695,14.7064814 73.4870713,13.9347422 72.673222,13.6480963 L45.7502077,4.34312733 C43.0447088,3.41704037 39.9872749,3.61548758 37.3917556,4.87231988 L37.3917556,4.87231988 Z M14.5599837,38.0350528 L4.52984114,34.5953012 L14.8019389,4.54157453 L24.8320815,7.98132609 L14.5599837,38.0350528 L14.5599837,38.0350528 Z" id="Shape" fill="#00B6F0"></path>
                                <rect id="XMLID_142_" fill-opacity="0.2" fill="#00CE5C" transform="translate(91.372346, 21.507561) rotate(243.926944) translate(-91.372346, -21.507561) " x="73.5356518" y="14.1990296" width="35.6733888" height="14.6170619"></rect>
                                <path d="M90.2259715,40.3061708 L85.4968473,44.6720093 C81.2076415,48.6189037 76.3685377,51.9484068 71.1335071,54.5061708 L47.905666,65.9013159 C46.8058696,66.4525582 45.4641181,65.9895147 44.9142199,64.8649805 C44.3643218,63.7624961 44.8262362,62.417465 45.9480285,61.8662228 L46.2559715,61.7118749 L46.2559715,61.7118749 L58.1119185,55.8953012 C59.1017352,55.4102081 59.5196578,54.2195248 59.0357475,53.2272888 C58.5518371,52.2350528 57.364057,51.8161087 56.3742403,52.3012019 L44.5182932,58.1177756 L44.5182932,58.1177756 L37.6115723,61.5134277 C36.5117759,62.06467 35.1700244,61.6016265 34.6201262,60.4770923 C34.3561751,59.9478998 34.3121833,59.3305085 34.5101466,58.7792662 C34.7081099,58.2059743 35.1040366,57.7649805 35.6319389,57.5003843 L40.8449735,54.9426203 L40.8449735,54.9426203 L53.8887006,48.530705 C54.8785173,48.0456118 55.2964399,46.8549286 54.8125295,45.8626925 C54.3286191,44.8704565 53.1408391,44.4515124 52.1510224,44.9366056 L39.0852994,51.3705706 L39.0852994,51.3705706 L38.5134053,51.6572166 L31.386725,55.1631172 C30.8588228,55.4277134 30.2429368,55.4718128 29.6930387,55.2733656 C29.1211446,55.0749184 28.681226,54.678024 28.4172749,54.1488315 C27.8673767,53.046347 28.3292912,51.7013159 29.4510835,51.1500737 L31.9146273,49.9373408 L31.9146273,49.9373408 L36.9516945,47.4677756 L38.3594338,46.7842352 L38.3594338,46.7842352 L48.05978,42.0039969 C49.0495967,41.5189037 49.4675193,40.3282205 48.983609,39.3359845 C48.4996986,38.3437484 47.3119185,37.9248043 46.3221018,38.4098975 L35.6539348,43.6531793 L30.176949,46.3432414 C29.0771527,46.8724339 27.7354012,46.4314402 27.185503,45.306906 C26.9215519,44.7777134 26.87756,44.1603221 27.0755234,43.6090799 C27.2734867,43.035788 27.6694134,42.5947942 28.1973156,42.3301979 L35.8960326,38.5421957 C36.8858493,38.0571025 37.3037719,36.8664193 36.8198615,35.8741832 C36.3359511,34.8819472 35.1481711,34.4630031 34.1583544,34.9480963 L26.4596374,38.7360985 C24.9639144,39.4637383 23.8421222,40.7426203 23.3142199,42.3081482 C22.7863177,43.8736762 22.8743014,45.5715023 23.600167,47.0708812 C24.0620814,47.9969681 24.7219592,48.7687072 25.5138126,49.3419992 C24.1280692,51.1721234 23.7761344,53.685788 24.8539348,55.8907569 C25.5798004,57.3901358 26.8555641,58.51467 28.4172749,59.0438625 C29.0771527,59.2643594 29.7370305,59.3746079 30.3969083,59.3746079 C30.3749124,60.3668439 30.5728757,61.3590799 31.0347902,62.2631172 C32.1125906,64.4680861 34.3341792,65.7469681 36.6217556,65.7469681 C37.5455845,65.7469681 38.4694134,65.5485209 39.3492505,65.1075271 L40.7569898,64.4239867 C40.8229776,65.1736762 41.0209409,65.9013159 41.3508798,66.606906 C42.4286802,68.8118749 44.6502688,70.0907569 46.9378452,70.0907569 C47.8616741,70.0907569 48.785503,69.8923097 49.6653401,69.4513159 L72.8931813,58.0561708 C78.4801466,55.3220093 83.6271935,51.794059 88.2023462,47.5825683 L93.8113075,42.4008913 L106.656929,36.0946801 C107.646745,35.609587 108.064668,34.4189037 107.580758,33.4266677 L91.875666,1.34436957 C91.6337108,0.859276398 91.2377841,0.506481366 90.7318778,0.330083851 C90.2259715,0.153686335 89.6760733,0.197785714 89.2141589,0.418282609 L76.1045866,6.83474224 C75.1147699,7.3198354 74.6968473,8.51051863 75.1807576,9.50275466 L90.2259715,40.3061708 L90.2259715,40.3061708 Z M89.170167,4.89436957 L103.093589,33.4487174 L93.5693523,38.1232516 L79.6459308,9.56890373 L89.170167,4.89436957 L89.170167,4.89436957 Z" id="Shape" fill="#00CE5C"></path>
                            </g>
                        </g>
                    </g>
                    <g id="Group-8" transform="translate(22.280922, 48.186188) rotate(-15.000000) translate(-22.280922, -48.186188) translate(14.780922, 39.186188)" stroke="#00B6F0" stroke-width="3.5" fill="#FFFFFF">
                        <path d="M0.421476133,6.98113549 C-0.261185361,4.88011945 0.889947424,2.62307104 2.98965648,1.94083421 L7.45684764,0.489355815 C9.55787598,-0.193309673 11.8158915,0.960765776 12.4971639,3.05750667 L12.4971639,3.05750667 C13.1798254,5.15852271 12.0286927,7.41557112 9.9289836,8.09780795 L5.46179243,9.54928634 C3.3607641,10.2319518 1.10274855,9.07787638 0.421476133,6.98113549 L0.421476133,6.98113549 L0.421476133,6.98113549 Z" id="Rectangle-2-Copy-6"></path>
                        <path d="M2.26487961,15.1706042 C1.58221812,13.0695881 2.7333509,10.8125397 4.83305995,10.1303029 L9.30025112,8.67882451 C11.4012795,7.99615902 13.659295,9.15023447 14.3405674,11.2469754 L14.3405674,11.2469754 C15.0232289,13.3479914 13.8720961,15.6050398 11.7723871,16.2872766 L7.30519591,17.738755 C5.20416758,18.4214205 2.94615202,17.2673451 2.26487961,15.1706042 L2.26487961,15.1706042 L2.26487961,15.1706042 Z" id="Rectangle-2-Copy-7"></path>
                    </g>
                    <g id="Group-8-Copy" transform="translate(36.859220, 59.280922) rotate(-15.000000) translate(-36.859220, -59.280922) translate(26.859220, 50.780922)" stroke="#00B6F0" stroke-width="3.5" fill="#FFFFFF">
                        <path d="M0.196731261,6.68824227 C-0.485930232,4.58722623 0.665202552,2.33017782 2.76491161,1.64794099 L7.23210277,0.196462596 C9.3331311,-0.486202891 11.5911467,0.667872557 12.2724191,2.76461345 L12.2724191,2.76461345 C12.9550806,4.86562949 11.8039478,7.1226779 9.70423873,7.80491473 L5.23704756,9.25639312 C3.13601923,9.93905861 0.878003676,8.78498316 0.196731261,6.68824227 L0.196731261,6.68824227 L0.196731261,6.68824227 Z" id="Rectangle-2-Copy-6"></path>
                        <path d="M7.646221,13.2740287 C6.96355951,11.1730127 8.1146923,8.91596426 10.2144013,8.23372743 L14.6815925,6.78224903 C16.7826208,6.09958355 19.0406364,7.25365899 19.7219088,9.35039989 L19.7219088,9.35039989 C20.4045703,11.4514159 19.2534375,13.7084643 17.1537285,14.3907012 L12.6865373,15.8421796 C10.585509,16.524845 8.32749342,15.3707696 7.646221,13.2740287 L7.646221,13.2740287 L7.646221,13.2740287 Z" id="Rectangle-2-Copy-7"></path>
                    </g>
                </g>
            </g>
        </g>
    </g>
</svg>