<?xml version="1.0" encoding="UTF-8"?>
<svg width="203px" height="162px" viewBox="0 0 203 162" version="1.1" xmlns="http://www.w3.org/2000/svg" xmlns:xlink="http://www.w3.org/1999/xlink">
    <!-- Generator: Sketch 43.2 (39069) - http://www.bohemiancoding.com/sketch -->
    <title>hdiw-visual-4</title>
    <desc>Created with Sketch.</desc>
    <defs>
        <polygon id="path-1" points="0 0 0 138.786885 92.3773585 138.786885 92.3773585 20.9290623 71.8485901 0"></polygon>
        <polygon id="path-2" points="70.6415094 1.77635684e-15 70.6415094 21.7704918 92.3773585 21.7704918"></polygon>
    </defs>
    <g id="Page-1" stroke="none" stroke-width="1" fill="none" fill-rule="evenodd">
        <g id="Illustrations" transform="translate(-1992.000000, -306.000000)">
            <g id="4" transform="translate(1878.000000, 200.000000)">
                <g id="hdiw-visual-4" transform="translate(102.000000, 106.000000)">
                    <g id="Group-10">
                        <g id="Page-1" transform="translate(45.891509, 0.000000)">
                            <g id="Group-7" transform="translate(0.594340, 0.000000)">
                                <polygon id="Fill-15" fill="#00B6F0" points="9.2110967 48.2686857 4.96581368 54.6337872 0.72053066 48.2686857"></polygon>
                                <polygon id="Stroke-16" stroke="#00B6F0" stroke-width="1.35849057" stroke-linejoin="round" points="9.2110967 48.2686857 4.96581368 54.6337872 0.72053066 48.2686857"></polygon>
                                <path d="M121.711097,37.306602 L121.711097,9.01690875 C121.711097,4.33007241 117.909446,0.530106863 113.220531,0.530106863 L13.4563797,0.530106863 C8.76746462,0.530106863 4.96581368,4.33007241 4.96581368,9.01690875 L4.96581368,48.2683675" id="Stroke-17" stroke="#00B6F0" stroke-width="1.06132075" stroke-dasharray="4.245283018867925,4.245283018867925,4.245283018867925,4.245283018867925,4.245283018867925,4.245283018867925"></path>
                            </g>
                            <g id="Group" transform="translate(76.108491, 27.213115)">
                                <g id="Group-5">
                                    <g id="Path">
                                        <use fill="#FFFFFF" fill-rule="evenodd" xlink:href="#path-1"></use>
                                        <path stroke="#00B6F0" stroke-width="2" d="M1,1 L71.4287093,1 L91.3773585,21.3376312 L91.3773585,137.786885 L1,137.786885 L1,1 Z"></path>
                                    </g>
                                    <g id="Fill-4">
                                        <use fill="#00B6F0" fill-rule="evenodd" xlink:href="#path-2"></use>
                                        <path stroke="#00B6F0" stroke-width="1" d="M71.1415094,1.2084674 L91.1716097,21.2704918 L71.1415094,21.2704918 L71.1415094,1.2084674 Z"></path>
                                    </g>
                                </g>
                                <g id="Group-4" transform="translate(27.891509, 57.147541)" fill="#00B6F0">
                                    <polygon id="Fill-5" points="6.10849057 24.4913084 7.10849057 24.4913084 7.10849057 -0.000494910068 6.10849057 -0.000494910068"></polygon>
                                    <polygon id="Fill-6" points="16.1084906 24.4918033 17.1084906 24.4918033 17.1084906 0 16.1084906 0"></polygon>
                                    <polygon id="Fill-7" points="20.1084906 24.4913084 21.1084906 24.4913084 21.1084906 -0.000494910068 20.1084906 -0.000494910068"></polygon>
                                    <polygon id="Fill-8" points="24.1084906 24.4913084 25.1084906 24.4913084 25.1084906 -0.000494910068 24.1084906 -0.000494910068"></polygon>
                                    <polygon id="Fill-9" points="28.1084906 24.4913084 29.1084906 24.4913084 29.1084906 -0.000494910068 28.1084906 -0.000494910068"></polygon>
                                    <polygon id="Fill-10" points="10.1084906 24.4913084 13.1084906 24.4913084 13.1084906 -0.000494910068 10.1084906 -0.000494910068"></polygon>
                                    <polygon id="Fill-11" points="32.1084906 24.4913084 35.1084906 24.4913084 35.1084906 -0.000494910068 32.1084906 -0.000494910068"></polygon>
                                    <polygon id="Fill-12" points="0.108490566 24.4913084 3.10849057 24.4913084 3.10849057 -0.000494910068 0.108490566 -0.000494910068"></polygon>
                                </g>
                            </g>
                            <g id="Group-59" transform="translate(5.433962, 128.071409)">
                                <path d="M0.126191038,7.49793159 L0.126191038,17.0455837 C0.126191038,21.7324201 3.92784198,25.5323856 8.61675708,25.5323856 L108.380908,25.5323856 C113.069823,25.5323856 116.871474,21.7324201 116.871474,17.0455837 L116.871474,6.43708136" id="Stroke-19" stroke="#00B6F0" stroke-dasharray="4.245283018867925,4.245283018867925,4.245283018867925,4.245283018867925,4.245283018867925,4.245283018867925"></path>
                                <polygon id="Fill-21" fill="#00B6F0" points="112.626191 6.43708136 116.871474 0.0719799389 121.116757 6.43708136"></polygon>
                                <polygon id="Stroke-23" stroke="#00B6F0" stroke-width="1.35849057" stroke-linejoin="round" points="112.626191 6.43708136 116.871474 0.0719799389 121.116757 6.43708136"></polygon>
                            </g>
                        </g>
                    </g>
                    <g id="Page-1" transform="translate(11.150943, 70.032787)">
                        <g id="Group-23" transform="translate(0.000000, 0.902795)">
                            <polygon id="Fill-2" fill-opacity="0.2" fill="#0081DB" points="0.849056604 49.2644226 74.8490566 49.2644226 74.8490566 9.26442261 0.849056604 9.26442261"></polygon>
                            <path d="M1.8490566,48.2644226 L1.8490566,10.2644226 L73.8490566,10.2644226 L73.8490566,48.2644226 L1.8490566,48.2644226 Z" id="Path" stroke="#00B6F0" stroke-width="2"></path>
                            <path d="M13.3115385,48 C12.8686538,42.3108571 8.58519231,37.8770714 3,37.2595714 L3,19.4728571 C8.46673077,18.911 12.8296154,14.9698571 13.5080769,10 L63.5230769,10 C64.2257692,14.7730714 68.2628846,18.7956429 73,19.4497857 L73,37.2799286 C67.9223077,37.9856429 63.6617308,42.6053571 63.1986538,48 L13.3115385,48 Z" id="Fill-4" fill="#FFFFFF"></path>
                            <path d="M10.8014358,48.4631914 C10.8084665,48.6046574 10.8120196,48.7468712 10.8120196,48.8897559 L12.5060153,48.1697977 C12.5761392,48.2446121 12.5761392,48.2446121 12.5911165,48.2629153 C12.6061192,48.2819749 12.6061192,48.2819749 12.611711,48.2894737 C12.6190668,48.2994439 12.6190668,48.2994439 12.6218207,48.3033185 C12.6250041,48.3078566 12.6250041,48.3078566 12.6254699,48.3085653 C12.6257068,48.3086894 12.6298872,48.3155104 12.6355913,48.3261023 C12.6690451,48.3882217 12.6948552,48.4501812 12.7151183,48.5666167 C12.805879,49.0881441 12.4627712,49.7097559 11.7476122,49.7097559 C11.5545417,49.7094861 11.5545417,49.7094861 11.1573136,49.51276 C10.7844632,49.0761136 10.7844632,49.0761136 10.7586927,48.6867858 C10.7776578,48.5866678 10.7912334,48.5150013 10.8014358,48.4631914 Z M10.7988602,48.414197 C10.799765,48.4305184 10.8006236,48.4468499 10.8014358,48.4631914 C10.8271345,48.3326877 10.8314309,48.328171 10.8465493,48.3122774 C10.8337178,48.3369362 10.8169432,48.3719325 10.7988602,48.414197 Z M64.2739076,48.2644226 L12.6403905,48.2644226 C12.5837565,48.1789745 12.4954576,48.0756547 12.3543473,47.9105396 C11.9509835,47.7106337 11.9509835,47.7106337 11.7476122,47.7097559 C11.6552462,47.7097559 11.5688889,47.7195896 11.4886526,47.7378817 C11.7574336,42.1243764 7.37196438,38.1121768 1.8490566,37.678145 L1.8490566,19.6025518 C7.54978763,19.1839668 12.0481367,15.2182666 12.5866376,10.2644226 L64.157774,10.2644226 C64.7308635,15.0669111 68.9294119,19.1007742 73.8490566,19.5894445 L73.8490566,37.6922719 C68.7699679,38.2336227 64.5762338,42.8373991 64.2739076,48.2644226 Z M64.2679884,48.3816695 C64.2679157,48.3832751 64.2678434,48.3848808 64.2677714,48.3864865 C64.2602624,48.5539615 64.256464,48.7221939 64.256464,48.8910893 L65.0920196,48.8910893 L65.256464,48.8910893 L66.0775196,48.320241 C66.0840068,48.3296485 66.0835782,48.3289875 66.086117,48.3334316 C66.0892194,48.3389063 66.0892194,48.3389063 66.0956759,48.351385 C66.1312818,48.422235 66.1576779,48.4927974 66.1727827,48.6217483 C66.2335331,49.1403778 65.8613324,49.7097559 65.2002788,49.7097559 C65.0127394,49.70901 65.0127394,49.70901 64.6304992,49.5274669 C64.5264261,49.413977 64.4512909,49.3320433 64.3960878,49.2644226 C64.2527569,49.0888503 64.2437965,49.0097674 64.2115709,48.7253516 C64.2430128,48.5246919 64.2574,48.4328741 64.2677714,48.3864865 C64.2765205,48.3473545 64.2824118,48.3405526 64.293273,48.3280127 C64.2863818,48.3416174 64.2777057,48.359847 64.2679884,48.3816695 C64.2497399,48.4226509 64.2278196,48.4763031 64.2071544,48.5357914 C64.1327717,48.7499139 64.0920196,48.9903523 64.0920196,49.2644226 L64.3960878,49.2644226 L65.0920196,49.2644226 L65.0920196,48.8910893 L65.0920196,48.2644226 L64.2739076,48.2644226 C64.2717328,48.3034627 64.2697593,48.3425454 64.2679884,48.3816695 Z" id="Fill-6" stroke="#00B6F0" stroke-width="2"></path>
                            <path d="M50,29 C50,35.628 44.628,41 38,41 C31.372,41 26,35.628 26,29 C26,22.372 31.372,17 38,17 C44.628,17 50,22.372 50,29" id="Fill-9" fill-opacity="0.2" fill="#0081DB"></path>
                            <path d="M38,41 C31.372,41 26,35.628 26,29 C26,22.372 31.372,17 38,17 C44.628,17 50,22.372 50,29 C50,35.628 44.628,41 38,41 Z" id="Stroke-11" stroke="#00B6F0" stroke-width="2" stroke-linecap="round" stroke-linejoin="round"></path>
                            <path d="M31,39.8439344 C31.8938868,37.0341803 34.5212075,35 37.621283,35 L37.621283,35 C40.725434,35 43.3527547,37.0369016 44.245283,39.849377" id="Stroke-13" stroke="#00B6F0" stroke-linejoin="round"></path>
                            <path d="M44,29 C44,32.3139371 41.3142522,35 38.0007038,35 C34.6857478,35 32,32.3139371 32,29 C32,25.6860629 34.6857478,23 38.0007038,23 C41.3142522,23 44,25.6860629 44,29" id="Fill-15" fill="#FFFFFF"></path>
                            <path d="M43.5811321,28.7991148 C43.5811321,32.0020984 40.9891321,34.5982295 37.7912453,34.5982295 C34.592,34.5982295 32,32.0020984 32,28.7991148 C32,25.5961311 34.592,23 37.7912453,23 C40.9891321,23 43.5811321,25.5961311 43.5811321,28.7991148 L43.5811321,28.7991148 Z" id="Stroke-17" stroke="#00B6F0" stroke-linejoin="round"></path>
                            <polyline id="Stroke-19" stroke="#00B6F0" stroke-width="2" stroke-linecap="round" points="8.8490566 5.26442261 78.8490566 5.26442261 78.8490566 41.2644226"></polyline>
                            <polyline id="Stroke-21" stroke="#00B6F0" stroke-width="2" stroke-linecap="round" points="13.8490566 0.26442261 83.8490566 0.26442261 83.8490566 36.2644226"></polyline>
                        </g>
                    </g>
                </g>
            </g>
        </g>
    </g>
</svg>