<?xml version="1.0" encoding="UTF-8"?>
<svg width="216px" height="140px" viewBox="0 0 216 140" version="1.1" xmlns="http://www.w3.org/2000/svg" xmlns:xlink="http://www.w3.org/1999/xlink">
    <!-- Generator: Sketch 43.2 (39069) - http://www.bohemiancoding.com/sketch -->
    <title>hdiw-visual-1</title>
    <desc>Created with Sketch.</desc>
    <defs>
        <path d="M103.349219,-1.42108547e-14 L0,-1.42108547e-14 L0,192 L138,192 L138,34.4675804 L103.349219,-1.31063087e-14 Z" id="path-1"></path>
        <polygon id="path-2" points="103.095941 0 137.092015 33.8126362 103.095941 33.8126362"></polygon>
        <rect id="path-3" x="0" y="0" width="98" height="180" rx="17.0345865"></rect>
    </defs>
    <g id="Page-1" stroke="none" stroke-width="1" fill="none" fill-rule="evenodd">
        <g id="Illustrations" transform="translate(-617.000000, -328.000000)">
            <g id="1" transform="translate(512.000000, 201.000000)">
                <g id="hdiw-visual-1" transform="translate(105.000000, 127.000000)">
                    <g id="Group-3" transform="translate(78.000000, 0.000000)">
                        <g id="Combined-Shape-Copy">
                            <use fill="#FFFFFF" fill-rule="evenodd" xlink:href="#path-1"></use>
                            <path stroke="#00B6F0" stroke-width="1.6" d="M103.019089,0.8 L137.2,34.800194 L137.2,191.2 L0.8,191.2 L0.8,0.8 L103.019089,0.8 Z"></path>
                        </g>
                        <g id="Rectangle-62-Copy-3">
                            <use fill="#00B6F0" fill-rule="evenodd" xlink:href="#path-2"></use>
                            <path stroke="#00B6F0" stroke-width="1.6" d="M103.895941,1.92400592 L135.153231,33.0126362 L103.895941,33.0126362 L103.895941,1.92400592 Z"></path>
                        </g>
                        <g id="Group-10-Copy" transform="translate(45.000000, 85.000000)" fill="#00B6F0">
                            <rect id="Rectangle-68" x="0" y="0" width="3.0754718" height="29.7213622"></rect>
                            <rect id="Rectangle-68-Copy" x="6.15094359" y="0" width="1.5377359" height="29.7213622"></rect>
                            <rect id="Rectangle-68-Copy-3" x="18.4528308" y="0" width="1.5377359" height="29.7213622"></rect>
                            <rect id="Rectangle-68-Copy-2" x="10.7641513" y="0" width="4.61320769" height="29.7213622"></rect>
                            <rect id="Rectangle-68" x="23.0660385" y="0" width="3.0754718" height="29.7213622"></rect>
                            <rect id="Rectangle-68-Copy" x="29.2169821" y="0" width="1.5377359" height="29.7213622"></rect>
                            <rect id="Rectangle-68-Copy-3" x="41.5188692" y="0" width="1.5377359" height="29.7213622"></rect>
                            <rect id="Rectangle-68-Copy-4" x="46.1320769" y="0" width="1.5377359" height="29.7213622"></rect>
                            <rect id="Rectangle-68-Copy-2" x="33.8301898" y="0" width="4.61320769" height="29.7213622"></rect>
                        </g>
                    </g>
                    <g id="Group-13-Copy" transform="translate(0.000000, 14.000000)">
                        <g id="Rectangle-65">
                            <use fill="#FFFFFF" fill-rule="evenodd" xlink:href="#path-3"></use>
                            <rect stroke="#00B6F0" stroke-width="2" x="1" y="1" width="96" height="178" rx="17.0345865"></rect>
                        </g>
                        <rect id="Rectangle-29" fill-opacity="0.2" fill="#00B6F0" x="7" y="22" width="84" height="127.736626" rx="0.8"></rect>
                        <g id="Group-58" transform="translate(23.000000, 60.000000)" fill="#00B6F0">
                            <path d="M35.1728077,41.3997426 L41.0927114,41.3997426 L41.0927114,35.4084832 L35.1728077,35.4084832 L35.1728077,41.3997426 Z M28.9351741,16.4482011 L32.9800791,16.4482011 L32.9800791,12.4083866 L35.0629752,12.4083866 L35.0629752,18.5074607 L35.1128991,18.4600222 C34.4567565,18.4934448 33.8009705,18.5268673 33.1587353,18.5595711 L33.1587353,20.5703141 L35.1128991,20.5703141 L35.0651148,20.5221569 L35.0651148,24.6949427 L39.1998828,24.6949427 L39.1524551,24.6467855 L39.1524551,27.1268816 L35.1150387,27.1268816 L35.1150387,29.1624219 L33.1590919,29.1624219 L33.1590919,31.1781962 L35.1150387,31.1781962 L35.1150387,33.1450946 L39.10895,33.1450946 C39.1642228,32.4698156 39.2098675,31.9127733 39.2630008,31.2651667 C39.9109416,31.2188064 40.5053925,31.17604 41.2578169,31.1221326 L41.2578169,27.2030706 L43.1980733,27.2030706 C43.2522763,27.8808653 43.2964946,28.4350325 43.3449921,29.0445446 L47.2518932,29.0445446 C47.3314148,28.3530934 47.4002385,27.7525658 47.4751243,27.101006 L49.4178769,27.101006 L49.3675964,27.0535676 L49.3675964,29.0010593 C50.0490575,29.0819203 50.6410122,29.1523592 51.3349543,29.2342983 L51.3349543,33.1903768 C50.677742,33.2245181 50.0265918,33.2583 49.375085,33.2920819 L49.375085,31.3108083 L47.4679923,31.3108083 L47.4679923,33.2432059 L49.4235825,33.2432059 C49.4039695,34.6318585 49.384,36.0201516 49.364387,37.4084448 L49.4128845,37.3599282 L47.4637132,37.3599282 C47.3927499,36.7040558 47.3278489,36.1024501 47.2522498,35.4038113 C46.6774119,35.3581697 46.1261095,35.3146845 45.3918717,35.2564646 L45.3918717,31.3201522 L43.3585429,31.3201522 L43.3585429,37.3232712 C43.9690408,37.3620845 44.51963,37.3973039 45.1864705,37.4400704 L45.1864705,39.3681555 C44.6134156,39.4181096 44.0171817,39.4705794 43.3478449,39.5291587 L43.3478449,41.3792579 C43.9009303,41.4486186 44.4968076,41.5230107 45.2806127,41.621122 L45.2806127,45.6605771 L45.3305366,45.6131387 C44.6351681,45.6307484 43.9397996,45.6479987 43.2444312,45.6656085 L43.2444312,43.6846942 L41.3373385,43.6846942 L41.3373385,45.6167325 L43.2929286,45.6167325 C43.2750987,47.0064632 43.2572687,48.3961939 43.2394388,49.7859245 L43.2865099,49.7352517 L39.2790478,49.7352517 C39.2112939,50.4529378 39.1549513,51.0502308 39.0904068,51.7326975 L33.1163,51.7326975 L33.1163,49.8092844 L37.0527988,49.8092844 C37.1070019,49.0441598 37.1490806,48.4457886 37.1961517,47.7791347 C37.8341077,47.7302588 38.3857667,47.6882111 39.0551035,47.6371788 L39.0551035,45.7392818 L35.1720945,45.7392818 C35.1228839,46.3336998 35.0768826,46.8885858 35.0159041,47.6253192 L31.1032974,47.6253192 C31.035187,48.3893656 30.9816971,48.9862993 30.9207186,49.668766 L29.0168354,49.668766 C28.9808188,49.0470349 28.9480117,48.4899926 28.9098556,47.830167 C28.2997143,47.7557749 27.7049068,47.6835391 27.0152439,47.5998031 L27.0152439,45.723469 C27.6054156,45.6727961 28.1577878,45.6253577 28.8342566,45.5674972 L28.8342566,41.5941684 C28.2041457,41.5593083 27.5480032,41.5226513 26.891504,41.4863537 L26.9385751,41.5366672 L26.9385751,39.3774994 L32.95797,39.3774994 L32.95797,35.4282493 L29.0560613,35.4282493 C28.9729737,36.1243724 28.9016538,36.720228 28.817853,37.4221013 L24.60392,37.4221013 C24.5482905,38.1361936 24.501576,38.7352836 24.4541483,39.3487489 C23.7548572,39.4288911 23.1593365,39.4971737 22.4632548,39.5769565 L22.4632548,41.5366672 L22.5106825,41.4888694 L18.3759146,41.4888694 L18.426195,41.5359485 L18.426195,37.513025 C17.7265474,37.4357578 17.1367323,37.3703503 16.3825249,37.2869736 L16.3825249,29.1157022 L16.332601,29.1631407 L20.3200935,29.1631407 L20.3200935,31.1386642 C19.649687,31.1904152 19.1005242,31.232463 18.4992979,31.2784639 L18.4992979,35.220167 L24.5040722,35.220167 C24.5040722,34.4899025 24.5040722,33.8652964 24.5044288,33.2406903 L28.9351741,33.2406903 L28.9351741,31.1749618 L31.0658545,31.1749618 L31.0658545,27.1502414 C31.7915339,27.088787 32.3428363,27.0420674 32.9483418,26.9906757 L32.9483418,24.6187537 L28.9818886,24.6187537 L28.9818886,16.3978876 L28.9351741,16.4482011 Z" id="Fill-14"></path>
                            <path d="M12.2919752,24.6443058 L10.3324625,24.6443058 C10.2704142,25.4403372 10.2147847,26.1490387 10.1509535,26.9648362 L8.21961209,26.9648362 L8.21961209,22.6914233 C7.41940343,22.6486568 6.76896645,22.6137968 6.11852947,22.5792961 L6.16702696,22.6278127 L6.16702696,16.5456296 L10.1841172,16.5456296 L10.1841172,20.5728657 L18.422629,20.5728657 L18.3759146,20.5221928 C18.4090783,21.1841747 18.442242,21.8461565 18.4746925,22.4941225 L20.4670124,22.4941225 L20.4670124,20.5221928 L20.4195847,20.57035 C21.7985539,20.5545372 23.1775231,20.5387244 24.5564923,20.5232709 L24.5564923,22.5182011 C25.4362226,22.596187 26.1365834,22.6580008 26.9375053,22.7291584 L26.9375053,27.1031983 L22.5745138,27.1031983 C22.4989148,26.1612577 22.4415023,25.448603 22.3780276,24.6590404 C21.6634028,24.6931817 21.0764405,24.7215729 20.5023157,24.748886 C20.4541748,25.6052936 20.4167319,26.2723068 20.3771494,26.975977 L18.4789717,26.975977 C18.4137141,26.1691641 18.3563016,25.4557906 18.2914005,24.6468214 L16.332601,24.6468214 L16.3800287,24.6946193 C16.3461518,24.0351531 16.3126314,23.3753275 16.2791111,22.7172988 L12.2452607,22.7172988 L12.2452607,24.6946193 L12.2919752,24.6443058 Z" id="Fill-16"></path>
                            <path d="M2.17275906,12.1593348 L12.1775069,12.1593348 L12.1775069,2.06105649 L2.17275906,2.06105649 L2.17275906,12.1593348 Z M0.0759556345,14.230454 L14.2297354,14.230454 L14.2297354,0.0222816917 L0.0759556345,0.0222816917 L0.0759556345,14.230454 Z" id="Fill-17"></path>
                            <path d="M39.2594348,12.1981481 L49.3262309,12.1981481 L49.3262309,2.11532319 L39.2594348,2.11532319 L39.2594348,12.1981481 Z M37.252851,14.222907 L51.3470787,14.222907 L51.3470787,0 L37.252851,0 L37.252851,14.222907 Z" id="Fill-18"></path>
                            <path d="M2.12426157,49.6374997 L12.1307924,49.6374997 L12.1307924,39.5442527 L2.12426157,39.5442527 L2.12426157,49.6374997 Z M0.145135884,51.7309006 L14.239007,51.7309006 L14.239007,37.5119468 L0.145135884,37.5119468 L0.145135884,51.7309006 Z" id="Fill-19"></path>
                            <path d="M49.3733733,20.5159036 L51.3321728,20.5159036 L51.3321728,27.0537832 L49.3676677,27.0537832 L49.4175916,27.1008623 L49.4175916,24.6006408 L43.2206103,24.6006408 L43.2206103,20.6445624 L41.1790798,20.6445624 L41.1790798,24.6470011 L39.1525264,24.6470011 L39.1999541,24.694799 C39.1667904,24.0328171 39.1336266,23.3708352 39.1004629,22.7077752 C38.3840551,22.6236798 37.792457,22.554319 37.1562839,22.4795675 L37.1562839,20.5223725 L37.1088562,20.5701703 L39.1999541,20.5701703 L39.1999541,18.4598785 L39.1532396,18.5105514 C42.5733827,18.5116295 45.9938825,18.5127076 49.4143822,18.5137858 L49.3658847,18.4649098 C49.3844279,19.1649862 49.402971,19.8647032 49.4215142,20.5647796 L45.4194011,20.5647796 L45.4194011,22.4964585 L49.3733733,22.4964585 L49.3733733,20.5159036 Z" id="Fill-20"></path>
                            <path d="M45.2805414,45.6605052 L47.217945,45.6605052 C47.2981798,44.9654602 47.36736,44.3656514 47.4475949,43.6716846 L51.3502168,43.6716846 L51.3502168,51.7509541 L49.5240721,51.7509541 C49.4527523,51.163005 49.3807193,50.5646337 49.2805149,49.7355392 L45.2837508,49.7355392 L45.3304653,49.7858527 L45.3304653,45.6134262 L45.2805414,45.6605052 Z" id="Fill-21"></path>
                            <path d="M18.3815132,16.4496746 L20.4729676,16.4496746 L20.4729676,10.2143947 L20.4244701,10.2632707 C21.1198386,10.2625519 21.8148505,10.2621925 22.5098624,10.2614738 L22.4631479,10.2108009 L22.4631479,14.3835867 L24.5542457,14.3835867 L24.506818,14.3354295 C24.5235782,15.725879 24.5399817,17.1166878 24.5567419,18.5071372 L20.4194777,18.5071372 L20.4194777,20.57035 L20.467262,20.5221928 L18.3758076,20.5221928 L18.4225221,20.5728657 C18.4250183,19.1820569 18.4275145,17.7916074 18.4300107,16.4007986 L18.3815132,16.4496746 Z" id="Fill-22"></path>
                            <path d="M24.6258152,8.25457615 L24.6258152,4.08286845 L28.8782609,4.08286845 C28.919983,3.27569619 28.9538599,2.62090196 28.9873803,1.96610773 L28.9388828,2.01462432 L30.8755731,2.01462432 C30.948676,2.65288697 31.0174996,3.24982068 31.0988043,3.95780347 C31.6886194,4.01314831 32.2798609,4.06885254 32.9545466,4.13246318 L32.9545466,6.11697127 L29.038374,6.11697127 C28.9863105,6.83178232 28.9463714,7.38523079 28.8868193,8.20857524 C27.4557866,8.20857524 26.0147691,8.20857524 24.5716121,8.20641895 C24.5698291,8.20462204 24.6258152,8.25457615 24.6258152,8.25457615" id="Fill-23"></path>
                            <path d="M22.4606873,47.6763874 L22.4606873,49.6353794 C21.8213049,49.7104902 21.2282804,49.779851 20.5247101,49.8625089 C20.4744297,50.4648333 20.4245058,51.0639233 20.3681631,51.7388429 L16.4912163,51.7388429 L16.4912163,47.8154683 C17.0154172,47.7540139 17.6048757,47.685372 18.3223533,47.6016359 C18.3569435,46.9392947 18.3915336,46.276594 18.4261237,45.6142528 L18.3761998,45.6613318 L20.4669411,45.6613318 L20.4195134,45.6131746 L20.4195134,47.7234665 L22.5106112,47.7234665 L22.4606873,47.6763874 Z" id="Fill-24"></path>
                            <path d="M24.5073172,10.2613659 L30.8797454,10.2613659 L30.8797454,14.3331654 L28.9352098,14.3331654 L28.9819243,14.3834789 C28.9487606,13.721497 28.9155968,13.0595152 28.8831463,12.4115492 L26.8908265,12.4115492 L26.8908265,14.3834789 L26.9382541,14.3353217 L24.506604,14.3353217 L24.5540317,14.3834789 L24.5540317,10.2110524 L24.5073172,10.2613659 Z" id="Fill-25"></path>
                            <path d="M26.8916466,41.48621 L26.8916466,43.4707181 C26.1481373,43.5300161 25.4434972,43.5860797 24.5755347,43.6554405 L24.5755347,47.6762077 L22.4605447,47.6762077 L22.5108252,47.7236461 L22.5108252,45.6133543 L20.4193707,45.6133543 L20.467155,45.6611521 L20.467155,43.6802379 C21.2352698,43.5903923 21.8268679,43.5210316 22.5108252,43.44053 L22.5108252,41.4887257 L22.4630409,41.5365235 L26.9383611,41.5365235 L26.8916466,41.48621 Z" id="Fill-26"></path>
                            <path d="M8.20805827,31.2244487 L8.20805827,29.103016 C10.2524416,29.103016 12.2608084,29.103016 14.2713149,29.104813 C14.2730979,29.1069692 14.2171118,29.0566558 14.2171118,29.0566558 C14.2463529,29.7096531 14.2752374,30.362291 14.3098276,31.1310094 C13.6062573,31.1777291 13.0242874,31.2161829 12.3364075,31.2614651 C12.3021739,31.9795106 12.2707932,32.6317891 12.2394125,33.2840677 L12.28791,33.2351917 C11.5925415,33.2359105 10.8975296,33.2366292 10.2025177,33.237348 L10.2492322,33.2876615 L10.2492322,31.1773697 L8.15813438,31.1773697 L8.20805827,31.2244487 Z" id="Fill-27"></path>
                            <path d="M8.20488454,33.2372043 L4.23450879,33.2372043 C4.15249097,33.925421 4.08188432,34.5166046 3.99844011,35.2148841 L2.14662034,35.2148841 L2.14662034,31.224305 L8.20809393,31.224305 L8.15817004,31.1772259 L8.15817004,33.2875178 L8.20488454,33.2372043 Z" id="Fill-28"></path>
                            <path d="M16.3824536,29.11581 C15.6621231,29.0974816 14.9417927,29.0787937 14.2193227,29.0586683 C14.2171831,29.0568714 14.2731692,29.1068255 14.2710296,29.1050286 C14.2692466,28.4930008 14.2692466,27.8831294 14.2692466,27.1733497 C13.6266548,27.1122547 13.0379095,27.0565505 12.2919039,26.9857522 L12.2919039,24.6443777 L12.2451894,24.6946911 L16.3799574,24.6946911 L16.3325297,24.6468933 L16.3325297,29.1632485 L16.3824536,29.11581 Z" id="Fill-29"></path>
                            <path d="M28.9874159,1.96599991 C26.8139437,1.96276548 24.6404714,1.95917165 22.4666425,1.95593722 L22.51514,2.00481318 L22.51514,0.0292896432 L28.9389184,0.0292896432 L28.9389184,2.0145165 L28.9874159,1.96599991 Z" id="Fill-30"></path>
                            <path d="M6.11863644,22.5791164 L6.11863644,29.053026 C5.48068044,29.0842922 4.89799731,29.1130428 4.20084582,29.1475435 L4.20084582,22.6279924 L6.16677734,22.6279924 L6.11863644,22.5791164" id="Fill-31"></path>
                            <path d="M22.4668208,1.9558294 L22.4668208,6.02295691 C21.8445552,6.05566068 21.2647249,6.08584878 20.5811241,6.12142761 C20.5016025,5.45153933 20.4309959,4.85855882 20.3475517,4.15776368 C19.7723571,4.09487181 19.1836118,4.03054241 18.4294044,3.9482439 L18.4294044,1.96553272 L18.3809069,2.0140493 C19.7588063,2.01117425 21.1370623,2.00793981 22.5149617,2.00470537 L22.4668208,1.9558294 Z" id="Fill-32"></path>
                            <path d="M49.3644227,37.4086245 L51.3303542,37.4086245 L51.3303542,41.4132195 L47.4273757,41.4132195 L47.4273757,39.5825269 C48.0007872,39.5113693 48.5934552,39.4373366 49.3198478,39.3471316 C49.3505153,38.6901811 49.381896,38.0253242 49.4129202,37.3597485 L49.3644227,37.4086245 Z" id="Fill-33"></path>
                            <path d="M0,16.4915785 L4.00211308,16.4915785 L4.00211308,18.4060071 L0.0870102104,18.4060071 C0.0602652687,17.8169798 0.0335203269,17.2275931 0,16.4915785" id="Fill-34"></path>
                            <path d="M18.4260524,45.614109 L16.4644001,45.614109 L16.4644001,41.5358407 L18.4260524,41.5358407 L18.3761285,41.4887616 L18.3761285,45.6611881 L18.4260524,45.614109 Z" id="Fill-35"></path>
                            <polygon id="Fill-36" points="0.1376473 24.6417542 1.95202415 24.6417542 1.95202415 20.6669879 0.1376473 20.6669879"></polygon>
                            <path d="M18.429868,16.4009064 L16.4671459,16.4009064 L16.4671459,12.4106867 L18.3813705,12.4106867 L18.3813705,16.4497824 L18.429868,16.4009064" id="Fill-37"></path>
                            <path d="M24.5149128,49.8226174 L26.8096288,49.8226174 L26.8096288,51.734171 L24.6065588,51.734171 C24.5805271,51.1911446 24.5519991,50.5988828 24.5149128,49.8226174" id="Fill-38"></path>
                            <path d="M45.2837508,49.7353954 L45.2837508,51.709122 L43.2864385,51.709122 L43.2864385,49.7353954 L43.239724,49.7857089 L45.3304653,49.7857089 L45.2837508,49.7353954 Z" id="Fill-39"></path>
                            <path d="M18.4293688,1.96538896 L16.4737786,1.96538896 L16.4737786,0.0329912791 L18.3808713,0.0329912791 L18.3808713,2.01426493 L18.4293688,1.96538896 Z" id="Fill-40"></path>
                            <path d="M22.510005,10.2613659 L22.510005,8.25098233 C23.2363976,8.25098233 23.9289133,8.25098233 24.6235686,8.25277924 C24.6257082,8.25457615 24.5697221,8.20462204 24.5718617,8.20641895 C24.5515356,8.89283881 24.5294264,9.57710237 24.5073172,10.2613659 L24.5540317,10.2110524 L22.4632905,10.2110524 L22.510005,10.2613659 Z" id="Fill-41"></path>
                            <polygon id="Fill-42" points="33.118083 10.1471543 34.9866629 10.1471543 34.9866629 8.29166439 33.118083 8.29166439"></polygon>
                            <path d="M28.9351028,14.3330935 L28.9351028,16.4480573 L28.9818173,16.3977438 L26.9385038,16.3977438 L26.9385038,14.3356092 L26.8907195,14.383407 L28.9818173,14.383407 L28.9351028,14.3330935 Z" id="Fill-43"></path>
                            <polygon id="Fill-44" points="12.3957456 18.4014429 14.2161846 18.4014429 14.2161846 16.5340934 12.3957456 16.5340934"></polygon>
                            <polygon id="Fill-45" points="37.1587088 18.5073169 37.1587088 16.5357466 39.1531683 16.5357466 39.1531683 18.5105514 39.1998828 18.4598785 37.1087849 18.4598785"></polygon>
                            <path d="M49.4142752,18.5139295 L49.4142752,16.5405623 L51.3288565,16.5405623 L51.3288565,18.4650536 L49.3661343,18.4650536 L49.4142752,18.5139295 Z" id="Fill-46"></path>
                            <path d="M35.0627969,18.5073529 L37.1585305,18.5073529 L37.1086066,18.4599144 L37.1086066,20.5702063 L37.1563909,20.5224084 L35.0652931,20.5224084 L35.1127208,20.5702063 L35.1127208,18.4599144 L35.0627969,18.5073529 Z" id="Fill-47"></path>
                            <path d="M20.4729319,10.2145025 L18.5173418,10.2145025 L18.5173418,8.28210482 L20.4244344,8.28210482 L20.4244344,10.2633785 L20.4729319,10.2145025 Z" id="Fill-48"></path>
                            <path d="M10.2024107,33.2372043 L10.2024107,35.2109309 L8.2047419,35.2109309 L8.2047419,33.2372043 L8.1580274,33.2875178 L10.2491252,33.2875178 L10.2024107,33.2372043 Z" id="Fill-49"></path>
                            <path d="M12.2394125,33.2841036 L14.1950026,33.2841036 L14.1950026,35.2165013 L12.28791,35.2165013 L12.28791,33.2352277 L12.2394125,33.2841036" id="Fill-50"></path>
                            <path d="M35.0651861,31.2253831 L35.0651861,29.1150913 L37.0189932,29.1150913 L37.0189932,31.1258343 C36.3771146,31.158538 35.7209721,31.1919606 35.0651861,31.2253831" id="Fill-51"></path>
                            <polygon id="Fill-52" points="28.98196 31.2253472 24.5540674 31.2253472 24.5540674 33.2874818 22.5963377 33.2874818 22.5963377 29.1912444 26.8908621 29.1912444 26.8908621 27.0529207 28.98196 27.0529207"></polygon>
                            <path d="M24.5066754,20.5702781 L24.5066754,18.4599863 L26.7992518,18.4599863 L26.7992518,20.5702781 L24.5066754,20.5702781 Z" id="Fill-53"></path>
                            <path d="M39.1487108,37.5233392 L39.1487108,39.3745166 C38.5439185,39.4011108 37.9558864,39.4273457 37.2469671,39.4589714 L37.2469671,37.5233392 L39.1487108,37.5233392 Z" id="Fill-54"></path>
                            <polygon id="Fill-55" points="4.1768467 10.1500294 10.1135106 10.1500294 10.1135106 4.17602029 4.1768467 4.17602029"></polygon>
                            <polygon id="Fill-56" points="41.2938334 10.1115755 47.2137371 10.1115755 47.2137371 4.14080084 41.2938334 4.14080084"></polygon>
                            <polygon id="Fill-57" points="4.22463099 47.6134596 10.1445347 47.6134596 10.1445347 41.6290284 4.22463099 41.6290284"></polygon>
                        </g>
                        <g id="Group-2" transform="translate(35.000000, 12.000000)" fill="#00B6F0">
                            <g id="Group">
                                <rect id="Rectangle-66" x="5.24008793" y="0.422657952" width="22.4206642" height="3.19341564" rx="1.59670782"></rect>
                                <rect id="Rectangle-66-Copy" x="0.435659889" y="0.422657952" width="3.20295203" height="3.19341564" rx="1.59670782"></rect>
                            </g>
                        </g>
                    </g>
                </g>
            </g>
        </g>
    </g>
</svg>