<svg width="336" height="399" viewBox="0 0 336 399" fill="none" xmlns="http://www.w3.org/2000/svg">
<g filter="url(#filter0_d_231_17)">
<mask id="path-1-inside-1_231_17" fill="white">
<path d="M331 165C331 165 335 231 311 265C287 299 162.5 385 162.5 385C162.5 385 49.5 298 27 265C4.5 232 4 165 4 165V0H331V165Z"/>
</mask>
<path d="M331 165C331 165 335 231 311 265C287 299 162.5 385 162.5 385C162.5 385 49.5 298 27 265C4.5 232 4 165 4 165V0H331V165Z" fill="#03832A"/>
<path d="M331 165H294V166.12L294.068 167.238L331 165ZM311 265L341.228 286.337L341.228 286.337L311 265ZM162.5 385L139.928 414.317L161.318 430.786L183.529 415.443L162.5 385ZM4 165H-33V165.138L-32.999 165.276L4 165ZM4 0V-37H-33V0H4ZM331 0H368V-37H331V0ZM331 165C294.068 167.238 294.067 167.231 294.067 167.225C294.067 167.223 294.066 167.217 294.066 167.213C294.066 167.205 294.065 167.199 294.065 167.193C294.064 167.182 294.064 167.175 294.064 167.171C294.063 167.165 294.064 167.173 294.065 167.196C294.068 167.243 294.073 167.349 294.081 167.511C294.097 167.836 294.121 168.386 294.146 169.138C294.196 170.643 294.25 172.94 294.25 175.844C294.25 181.696 294.03 189.785 293.171 198.7C291.283 218.281 286.898 234.985 280.772 243.663L311 265L341.228 286.337C359.102 261.015 364.717 227.719 366.829 205.8C367.97 193.965 368.25 183.429 368.25 175.844C368.25 172.029 368.179 168.904 368.104 166.667C368.067 165.547 368.028 164.646 367.997 163.988C367.981 163.659 367.967 163.39 367.956 163.185C367.951 163.082 367.946 162.995 367.942 162.924C367.94 162.889 367.938 162.858 367.936 162.831C367.936 162.817 367.935 162.805 367.934 162.793C367.934 162.787 367.933 162.779 367.933 162.777C367.933 162.769 367.932 162.762 331 165ZM311 265L280.772 243.663C277.771 247.915 268.856 256.972 253.65 269.952C239.404 282.113 222.248 295.55 205.463 308.215C188.743 320.832 172.712 332.441 160.841 340.91C154.913 345.138 150.043 348.57 146.666 350.936C144.978 352.118 143.664 353.034 142.78 353.649C142.338 353.956 142.003 354.188 141.783 354.341C141.672 354.418 141.591 354.474 141.539 354.51C141.512 354.528 141.494 354.541 141.482 354.549C141.477 354.553 141.473 354.556 141.471 354.557C141.47 354.558 141.47 354.558 141.47 354.558C141.47 354.558 141.471 354.557 162.5 385C183.529 415.443 183.531 415.442 183.533 415.44C183.535 415.439 183.537 415.437 183.54 415.435C183.546 415.431 183.554 415.426 183.563 415.42C183.582 415.407 183.608 415.388 183.642 415.365C183.71 415.318 183.807 415.251 183.933 415.163C184.185 414.989 184.553 414.734 185.028 414.403C185.979 413.742 187.364 412.776 189.127 411.541C192.653 409.071 197.696 405.518 203.815 401.153C216.038 392.434 232.632 380.418 250.036 367.285C267.377 354.2 285.846 339.762 301.693 326.236C316.581 313.528 332.229 299.085 341.228 286.337L311 265ZM162.5 385C185.072 355.683 185.073 355.683 185.073 355.683C185.073 355.683 185.073 355.683 185.072 355.682C185.07 355.681 185.066 355.678 185.061 355.674C185.051 355.666 185.034 355.653 185.01 355.635C184.962 355.598 184.888 355.541 184.788 355.464C184.588 355.309 184.283 355.074 183.882 354.763C183.078 354.14 181.885 353.214 180.351 352.018C177.283 349.626 172.857 346.159 167.469 341.89C156.679 333.341 142.099 321.633 126.869 308.946C111.584 296.214 95.9229 282.727 82.8638 270.58C68.998 257.683 60.5868 248.581 57.5704 244.157L27 265L-3.57041 285.843C4.66323 297.919 18.8145 312.067 32.4644 324.764C46.9209 338.211 63.7289 352.661 79.5063 365.804C95.3384 378.992 110.415 391.097 121.515 399.892C127.072 404.295 131.651 407.882 134.85 410.376C136.45 411.624 137.707 412.599 138.569 413.267C139.001 413.601 139.334 413.859 139.562 414.035C139.677 414.123 139.765 414.191 139.826 414.239C139.857 414.262 139.88 414.281 139.898 414.294C139.906 414.3 139.913 414.306 139.918 414.31C139.921 414.312 139.923 414.314 139.924 414.315C139.926 414.316 139.928 414.317 162.5 385ZM27 265L57.5704 244.157C51.4691 235.208 46.5384 217.629 43.7015 197.469C42.4058 188.261 41.722 179.887 41.3663 173.819C41.1895 170.804 41.0966 168.408 41.0484 166.82C41.0243 166.027 41.0115 165.44 41.0049 165.081C41.0016 164.903 40.9999 164.781 40.9991 164.72C40.9987 164.69 40.9986 164.675 40.9986 164.675C40.9986 164.676 40.9986 164.68 40.9987 164.688C40.9987 164.692 40.9988 164.697 40.9988 164.703C40.9988 164.706 40.9989 164.711 40.9989 164.713C40.9989 164.718 40.999 164.724 4 165C-32.999 165.276 -32.9989 165.282 -32.9989 165.289C-32.9989 165.291 -32.9988 165.298 -32.9988 165.303C-32.9987 165.313 -32.9986 165.324 -32.9985 165.337C-32.9983 165.361 -32.998 165.389 -32.9977 165.422C-32.997 165.487 -32.9961 165.568 -32.9949 165.666C-32.9924 165.861 -32.9885 166.12 -32.9827 166.44C-32.9709 167.079 -32.951 167.963 -32.9175 169.067C-32.8505 171.272 -32.7286 174.368 -32.5069 178.15C-32.0657 185.676 -31.2183 196.114 -29.5765 207.781C-26.5384 229.371 -19.9691 261.792 -3.57041 285.843L27 265ZM4 165H41V0H4H-33V165H4ZM4 0V37H331V0V-37H4V0ZM331 0H294V165H331H368V0H331Z" fill="white" mask="url(#path-1-inside-1_231_17)"/>
</g>
<path d="M268.436 110.278L150.134 243.103L143.302 237.018L72 177L94.5391 150.224L146.805 194.217L242.299 87L268.436 110.278Z" fill="white"/>
<defs>
<filter id="filter0_d_231_17" x="0" y="0" width="335.25" height="399" filterUnits="userSpaceOnUse" color-interpolation-filters="sRGB">
<feFlood flood-opacity="0" result="BackgroundImageFix"/>
<feColorMatrix in="SourceAlpha" type="matrix" values="0 0 0 0 0 0 0 0 0 0 0 0 0 0 0 0 0 0 127 0" result="hardAlpha"/>
<feOffset dy="10"/>
<feGaussianBlur stdDeviation="2"/>
<feComposite in2="hardAlpha" operator="out"/>
<feColorMatrix type="matrix" values="0 0 0 0 0 0 0 0 0 0 0 0 0 0 0 0 0 0 0.25 0"/>
<feBlend mode="normal" in2="BackgroundImageFix" result="effect1_dropShadow_231_17"/>
<feBlend mode="normal" in="SourceGraphic" in2="effect1_dropShadow_231_17" result="shape"/>
</filter>
</defs>
</svg>
