<?xml version="1.0" encoding="UTF-8"?>
<svg width="216px" height="152px" viewBox="0 0 216 152" version="1.1" xmlns="http://www.w3.org/2000/svg" xmlns:xlink="http://www.w3.org/1999/xlink">
    <!-- Generator: Sketch 43.2 (39069) - http://www.bohemiancoding.com/sketch -->
    <title>hdiw-visual-3</title>
    <desc>Created with Sketch.</desc>
    <defs></defs>
    <g id="Page-1" stroke="none" stroke-width="1" fill="none" fill-rule="evenodd">
        <g id="Illustrations" transform="translate(-1527.000000, -316.000000)">
            <g id="3" transform="translate(1422.000000, 200.000000)">
                <g id="hdiw-visual-3" transform="translate(105.000000, 116.200005)">
                    <g id="sell-visual-3-copy-2">
                        <path d="M44,85.9588 C44,88.7198 41.761,90.9588 39,90.9588 C36.239,90.9588 34,88.7198 34,85.9588 C34,83.1978 36.239,80.9588 39,80.9588 C41.761,80.9588 44,83.1978 44,85.9588" id="Fill-1" fill-opacity="0.2" fill="#0081DB"></path>
                        <path d="M172,85.9588 C172,83.1978 174.239,80.9588 177,80.9588 C179.761,80.9588 182,83.1978 182,85.9588 C182,88.7198 179.761,90.9588 177,90.9588 C174.239,90.9588 172,88.7198 172,85.9588" id="Fill-3" fill-opacity="0.2" fill="#0081DB"></path>
                        <path d="M216,20 L0,20 L0,151 C0,153.209 1.791,155 4,155 L212,155 C214.209,155 216,153.209 216,151 L216,20 Z" id="Fill-5" fill="#00B6F0"></path>
                        <path d="M214,151.992366 C214,153.099576 213.103,154 212,154 L4,154 C2.897,154 2,153.099576 2,151.992366 L2,22 L214,22 L214,151.992366 Z" id="Path" fill="#FFFFFF"></path>
                        <path d="M212,0 L4,0 C1.791,0 0,1.791 0,4 L0,22 L216,22 L216,4 C216,1.791 214.209,0 212,0 M212,2 C213.103,2 214,2.897 214,4 L214,20 L2,20 L2,4 C2,2.897 2.897,2 4,2 L212,2" id="Fill-7" fill="#00B6F0"></path>
                        <path d="M216,22 L0,22 L0,4 C0,1.791 1.791,0 4,0 L212,0 C214.209,0 216,1.791 216,4 L216,22 Z" id="Fill-9" fill-opacity="0.2" fill="#00B6F0"></path>
                        <path d="M14,11 C14,12.657 12.657,14 11,14 C9.343,14 8,12.657 8,11 C8,9.343 9.343,8 11,8 C12.657,8 14,9.343 14,11" id="Fill-11" fill="#FFFFFF"></path>
                        <path d="M24,11 C24,12.657 22.657,14 21,14 C19.343,14 18,12.657 18,11 C18,9.343 19.343,8 21,8 C22.657,8 24,9.343 24,11" id="Fill-13" fill="#FFFFFF"></path>
                        <path d="M34,11 C34,12.657 32.657,14 31,14 C29.343,14 28,12.657 28,11 C28,9.343 29.343,8 31,8 C32.657,8 34,9.343 34,11" id="Fill-15" fill="#FFFFFF"></path>
                        <path d="M14,11 C14,12.657 12.657,14 11,14 C9.343,14 8,12.657 8,11 C8,9.343 9.343,8 11,8 C12.657,8 14,9.343 14,11 L14,11 Z" id="Stroke-17" stroke="#00B6F0"></path>
                        <path d="M24,11 C24,12.657 22.657,14 21,14 C19.343,14 18,12.657 18,11 C18,9.343 19.343,8 21,8 C22.657,8 24,9.343 24,11 L24,11 Z" id="Stroke-19" stroke="#00B6F0"></path>
                        <path d="M34,11 C34,12.657 32.657,14 31,14 C29.343,14 28,12.657 28,11 C28,9.343 29.343,8 31,8 C32.657,8 34,9.343 34,11 L34,11 Z" id="Stroke-21" stroke="#00B6F0"></path>
                        <g id="left-copy" transform="translate(138.000000, 91.000000) scale(-1, -1) translate(-138.000000, -91.000000) translate(103.000000, 42.000000)">
                            <path d="M60.7273,52.9588 L12.7273,52.9588" id="Stroke-25" stroke="#00B6F0" stroke-dasharray="3.273,3.273,3.273,3.273"></path>
                            <path d="M10,52.9588 C10,55.7198 7.761,57.9588 5,57.9588 C2.239,57.9588 0,55.7198 0,52.9588 C0,50.1978 2.239,47.9588 5,47.9588 C7.761,47.9588 10,50.1978 10,52.9588 L10,52.9588 Z" id="Stroke-31" stroke="#00B6F0"></path>
                            <path d="M30.4228,88.536 C32.3758,90.489 32.3758,93.654 30.4228,95.607 C28.4698,97.56 25.3048,97.56 23.3518,95.607 C21.3988,93.654 21.3988,90.489 23.3518,88.536 C25.3048,86.583 28.4698,86.583 30.4228,88.536" id="Fill-67" fill-opacity="0.2" fill="#00B6F0"></path>
                            <path d="M62.2716,56.6872 L32.5731152,86.3856848" id="Stroke-71" stroke="#00B6F0" stroke-dasharray="3.273,3.273,3.273,3.273"></path>
                            <path d="M30.4228,88.536 C32.3758,90.489 32.3758,93.654 30.4228,95.607 C28.4698,97.56 25.3048,97.56 23.3518,95.607 C21.3988,93.654 21.3988,90.489 23.3518,88.536 C25.3048,86.583 28.4698,86.583 30.4228,88.536 L30.4228,88.536 Z" id="Stroke-77" stroke="#00B6F0"></path>
                            <path d="M30.4228,18.3817 C28.4698,20.3347 25.3048,20.3347 23.3518,18.3817 C21.3988,16.4287 21.3988,13.2637 23.3518,11.3107 C25.3048,9.3577 28.4698,9.3577 30.4228,11.3107 C32.3758,13.2637 32.3758,16.4287 30.4228,18.3817" id="Fill-79" fill-opacity="0.2" fill="#00B6F0"></path>
                            <path d="M62.2716,50.2304 L32.5731152,20.5319152" id="Stroke-83" stroke="#00B6F0" stroke-dasharray="3.273,3.273,3.273,3.273"></path>
                            <path d="M30.4228,18.3817 C28.4698,20.3347 25.3048,20.3347 23.3518,18.3817 C21.3988,16.4287 21.3988,13.2637 23.3518,11.3107 C25.3048,9.3577 28.4698,9.3577 30.4228,11.3107 C32.3758,13.2637 32.3758,16.4287 30.4228,18.3817 L30.4228,18.3817 Z" id="Stroke-89" stroke="#00B6F0"></path>
                            <g id="Group-17" transform="translate(64.500000, 24.500000) rotate(-270.000000) translate(-64.500000, -24.500000) translate(40.000000, 19.000000)" stroke="#00B6F0">
                                <path d="M48.7273,5.20000458 L12.7273,5.20000458" id="Stroke-25" stroke-dasharray="3.273,3.273,3.273,3.273"></path>
                                <path d="M10,5.20000458 C10,7.96100458 7.761,10.2000046 5,10.2000046 C2.239,10.2000046 0,7.96100458 0,5.20000458 C0,2.43900458 2.239,0.200004578 5,0.200004578 C7.761,0.200004578 10,2.43900458 10,5.20000458 L10,5.20000458 Z" id="Stroke-31" fill="#FFFFFF"></path>
                            </g>
                        </g>
                        <g id="left-copy-2" transform="translate(43.000000, 33.000000)">
                            <path d="M60.7273,53.9588 L12.7273,53.9588" id="Stroke-25" stroke="#00B6F0" stroke-dasharray="3.273,3.273,3.273,3.273"></path>
                            <path d="M10,53.9588 C10,56.7198 7.761,58.9588 5,58.9588 C2.239,58.9588 0,56.7198 0,53.9588 C0,51.1978 2.239,48.9588 5,48.9588 C7.761,48.9588 10,51.1978 10,53.9588 L10,53.9588 Z" id="Stroke-31" stroke="#00B6F0"></path>
                            <path d="M30.4228,95.607 C28.4698,97.56 25.3048,97.56 23.3518,95.607 C21.3988,93.654 21.3988,90.489 23.3518,88.536 C25.3048,86.583 28.4698,86.583 30.4228,88.536 C32.3758,90.489 32.3758,93.654 30.4228,95.607 Z" id="Fill-67" fill-opacity="0.2" fill="#00B6F0"></path>
                            <path d="M62.2716,56.6872 L32.5731152,86.3856848" id="Stroke-71" stroke="#00B6F0" stroke-dasharray="3.273,3.273,3.273,3.273"></path>
                            <path d="M30.4228,88.536 C32.3758,90.489 32.3758,93.654 30.4228,95.607 C28.4698,97.56 25.3048,97.56 23.3518,95.607 C21.3988,93.654 21.3988,90.489 23.3518,88.536 C25.3048,86.583 28.4698,86.583 30.4228,88.536 L30.4228,88.536 Z" id="Stroke-77" stroke="#00B6F0"></path>
                            <path d="M30.4228,18.3817 C28.4698,20.3347 25.3048,20.3347 23.3518,18.3817 C21.3988,16.4287 21.3988,13.2637 23.3518,11.3107 C25.3048,9.3577 28.4698,9.3577 30.4228,11.3107 C32.3758,13.2637 32.3758,16.4287 30.4228,18.3817" id="Fill-79" fill-opacity="0.2" fill="#00B6F0"></path>
                            <path d="M62.2716,50.2304 L32.5731152,20.5319152" id="Stroke-83" stroke="#00B6F0" stroke-dasharray="3.273,3.273,3.273,3.273"></path>
                            <path d="M30.4228,18.3817 C28.4698,20.3347 25.3048,20.3347 23.3518,18.3817 C21.3988,16.4287 21.3988,13.2637 23.3518,11.3107 C25.3048,9.3577 28.4698,9.3577 30.4228,11.3107 C32.3758,13.2637 32.3758,16.4287 30.4228,18.3817 L30.4228,18.3817 Z" id="Stroke-89" stroke="#00B6F0"></path>
                            <g id="Group-17" transform="translate(64.500000, 24.500000) rotate(-270.000000) translate(-64.500000, -24.500000) translate(40.000000, 19.000000)" stroke="#00B6F0">
                                <path d="M48.7273,5.20000458 L12.7273,5.20000458" id="Stroke-25" stroke-dasharray="3.273,3.273,3.273,3.273"></path>
                                <path d="M10,5.20000458 C10,7.96100458 7.761,10.2000046 5,10.2000046 C2.239,10.2000046 3.67402449e-17,7.96100458 3.67402449e-17,5.20000458 C3.67402449e-17,2.43900458 2.239,0.200004578 5,0.200004578 C7.761,0.200004578 10,2.43900458 10,5.20000458 L10,5.20000458 Z" id="Stroke-31"></path>
                            </g>
                        </g>
                    </g>
                    <circle id="Oval-2" fill="#FFFFFF" cx="108" cy="86" r="22"></circle>
                    <g id="promote" transform="translate(95.000000, 76.000000)" fill="#00B6F0">
                        <g id="Group">
                            <path d="M24.867375,0.116905109 C24.3000469,0.116905109 23.8352969,0.584321168 23.8352969,1.15535766 L23.8352969,18.8065985 C23.8352969,19.3778394 24.3000469,19.8448467 24.867375,19.8448467 C25.4347031,19.8448467 25.89925,19.3778394 25.89925,18.8065985 L25.89925,1.15515328 C25.89925,0.584116788 25.4347031,0.116905109 24.867375,0.116905109 L24.867375,0.116905109 Z" id="Shape"></path>
                            <path d="M0.10075,9.46134307 L0.10075,10.5 C0.10075,11.6461606 1.02435937,12.5767007 2.16470312,12.5767007 L2.16470312,7.38484672 C1.02435937,7.38484672 0.10075,8.31538686 0.10075,9.46134307 L0.10075,9.46134307 Z" id="Shape"></path>
                            <path d="M4.22845312,6.34680292 C3.661125,6.34680292 3.196375,6.81442336 3.196375,7.38525547 L3.196375,12.5771095 C3.196375,12.874073 3.32535937,13.1387445 3.5254375,13.3271825 L4.72773437,19.8632409 C4.83092187,20.4252847 5.38017187,20.8835036 5.9475,20.8835036 L7.66878125,20.8835036 C8.23610937,20.8835036 8.6295625,20.4228321 8.54303125,19.8573139 L7.5781875,13.6153577 L8.35615625,13.6153577 L22.8032187,18.8065985 L22.8032187,1.15515328 L8.35635937,6.34680292 L4.22845312,6.34680292 L4.22845312,6.34680292 Z" id="Shape"></path>
                        </g>
                    </g>
                </g>
            </g>
        </g>
    </g>
</svg>