<svg width="264" height="212" viewBox="0 0 264 212" fill="none" xmlns="http://www.w3.org/2000/svg">
<path d="M80 165.398C92.7025 165.398 103 175.696 103 188.398C103 201.101 92.7025 211.398 80 211.398C67.2975 211.398 57 201.101 57 188.398C57 175.696 67.2975 165.398 80 165.398ZM206 165.398C218.703 165.398 229 175.696 229 188.398C229 201.101 218.703 211.398 206 211.398C193.297 211.398 183 201.101 183 188.398C183 175.696 193.297 165.398 206 165.398ZM44.8115 0.0078125C48.8088 -0.168611 52.2776 2.82827 52.6436 6.85449L55.4189 37.3984H253.291C259.766 37.3984 264.534 43.458 263.011 49.751L237.841 153.751C236.755 158.238 232.738 161.398 228.121 161.398H61.3115C56.1625 161.398 51.8551 157.488 51.3584 152.363L42.5205 61.1523C42.4372 60.8033 42.3772 60.4441 42.3438 60.0762L38.248 15H7.5C3.35786 15 -1.81059e-07 11.6421 0 7.5C6.96463e-07 3.35786 3.35786 2.05508e-07 7.5 0H44.5C44.6044 1.43029e-08 44.7082 0.00358965 44.8115 0.0078125Z" fill="#858585"/>
</svg>
